<svg xmlns="http://www.w3.org/2000/svg" viewBox="0 0 520 470"><path d="M10 320C-10 230 50 150 120 140c60-8 80 50 50 120s-30 150-100 160S10 380 10 320z" fill="#DDE5D0"/><circle cx="440" cy="370" r="66" fill="#F6B92B"/><g transform="rotate(-8 400 70)"><rect x="335" y="28" width="150" height="46" fill="#E5382B"/><rect x="335" y="74" width="150" height="46" fill="#fff"/></g><g fill="#B7BFC2"><rect x="290" y="250" width="44" height="130"/><rect x="392" y="230" width="60" height="150"/></g><rect x="352" y="150" width="14" height="230" fill="#E9E4D8"/><rect x="340" y="200" width="38" height="14" fill="#E9E4D8"/><path d="M359 96c14 20 10 40 0 54-10-14-14-34 0-54z" fill="#F6B92B"/><g stroke="#fff" stroke-width="10" paint-order="stroke" stroke-linejoin="round"><path d="M180 130c-30 20-40 90-25 150h130c15-60 5-130-25-150-20-14-60-14-80 0z" fill="#2A1B14"/><path d="M110 470c0-90 30-160 120-160s120 70 120 160z" fill="#F7F7F4"/><rect x="212" y="235" width="32" height="50" fill="#DFA57C"/><ellipse cx="228" cy="188" rx="50" ry="58" fill="#E9B48C"/><path d="M176 180c0-52 104-58 104 0-30-30-74-34-104 0z" fill="#2A1B14"/><path d="M170 320l-30 150h46l24-150z" fill="#3E6B54"/><rect x="255" y="340" width="110" height="84" rx="6" fill="#D9C7A3" transform="rotate(-10 300 380)"/></g><circle cx="210" cy="192" r="4" fill="#2A1B14"/><circle cx="248" cy="192" r="4" fill="#2A1B14"/><path d="M212 214q17 16 34 0" fill="none" stroke="#2A1B14" stroke-width="4" stroke-linecap="round"/><path d="M40 60c40-30 60 40 100 10M60 120c30 10 60-20 90 0" fill="none" stroke="#17452F" stroke-width="7" stroke-linecap="round"/></svg>
